<svg width="83" height="83" viewBox="0 0 83 83" fill="none" xmlns="http://www.w3.org/2000/svg">
<circle cx="41.5" cy="41.5" r="40.5" fill="#E3DFFB"/>
<path d="M41.7733 75.079C15.6963 77.1842 5.33591 57 1.5 44C2.5 70 26.2857 81.1491 38 81.5C67 83.5 80 60.5 81.5 44.5526C77.9348 51.3948 74.3696 72.4474 41.7733 75.079Z" fill="#DCD7FF" stroke="#DCD7FF"/>
<path d="M25.5 39.5H15.5V11.1625C37.9 -6.3372 59.5 3.87094 67.5 11.1625V39.5H57.5C59.1 20.0117 47.5 15.4711 41.5 15.6368C25.9 16.4323 24.3333 31.877 25.5 39.5Z" fill="#AC81F1" stroke="#AC81F1"/>
<path d="M15 39.5H1.5C2.3 24.5667 10.8333 14.6111 15 11.5V39.5Z" fill="#9417CC" stroke="#9417CC"/>
<path d="M68 39.5H81.5C80.7 24.5667 72.1667 14.6111 68 11.5V39.5Z" fill="#9417CC" stroke="#9417CC"/>
<path d="M57.5 34.5C57.5 44.9934 56 42 37.5 42C28.6634 42 25.5 44.9934 25.5 34.5C25.5 24.0066 32.6634 15.5 41.5 15.5C50.3366 15.5 57.5 24.0066 57.5 34.5Z" fill="#E3DFFB"/>
<rect x="1" y="40" width="81" height="3.5" fill="#37474F"/>
<circle cx="41.5" cy="41.5" r="12" fill="#37474F"/>
<circle cx="41.5" cy="41.5" r="8" fill="white"/>
<circle cx="41.5" cy="41.5" r="4" fill="#37474F"/>
</svg>
