<svg width="81" height="81" viewBox="0 0 81 81" fill="none" xmlns="http://www.w3.org/2000/svg">
<path d="M81 40.5C81 62.8675 62.8675 81 40.5 81C18.1325 81 0 62.8675 0 40.5C0 18.1325 18.1325 0 40.5 0C62.8675 0 81 18.1325 81 40.5Z" fill="#1363C5"/>
<path d="M24.1923 39H14V9.91675C36.8308 -8.04344 58.8462 2.43334 67 9.91675V39H56.8077C58.4385 18.9989 46.6154 14.3388 40.5 14.5088C24.6 15.3252 23.0032 31.1764 24.1923 39Z" fill="#0F3779"/>
<path d="M14 39H0C0.82963 23.5333 9.67901 13.2222 14 10V39Z" fill="#0F3779"/>
<path d="M67 39H81C80.1704 23.5333 71.321 13.2222 67 10V39Z" fill="#0F3779"/>
<path d="M41.2733 74.079C15.1963 76.1842 3.58266 55 0.5 41C1 69 25.7857 80.1491 37.5 80.5C66.5 82.5 81.5 55 80.5 40.5C76.9348 47.3421 73.8696 71.4474 41.2733 74.079Z" fill="#0058C4"/>
<path d="M69 25C69 34.9411 56.6878 43 41.5 43C26.3122 43 14 34.9411 14 25C14 15.0589 26.3122 7 41.5 7C56.6878 7 69 15.0589 69 25Z" fill="#0F3779"/>
<path d="M0 38H81V41.5H0V38Z" fill="#5B8397"/>
<path d="M53 39C53 45.6274 47.6274 51 41 51C34.3726 51 29 45.6274 29 39C29 32.3726 34.3726 27 41 27C47.6274 27 53 32.3726 53 39Z" fill="#5B8397"/>
<path d="M49 39C49 43.4183 45.4183 47 41 47C36.5817 47 33 43.4183 33 39C33 34.5817 36.5817 31 41 31C45.4183 31 49 34.5817 49 39Z" fill="white"/>
<path d="M45 39C45 41.2091 43.2091 43 41 43C38.7909 43 37 41.2091 37 39C37 36.7909 38.7909 35 41 35C43.2091 35 45 36.7909 45 39Z" fill="#5B8397"/>
<path d="M78.5 27H55V17H73.3913C77.0696 21.8 78.3297 25.6667 78.5 27Z" fill="#1FBAF7"/>
<path d="M2.5 27H26V17H7.6087C3.93044 21.8 2.67029 25.6667 2.5 27Z" fill="#1FBAF7"/>
</svg>
